<?xml version="1.0" standalone="no"?>
<!DOCTYPE svg PUBLIC "-//W3C//DTD SVG 20010904//EN"
 "http://www.w3.org/TR/2001/REC-SVG-20010904/DTD/svg10.dtd">
<svg version="1.0" xmlns="http://www.w3.org/2000/svg"
 width="1152.000000pt" height="648.000000pt" viewBox="0 0 1152.000000 648.000000"
 preserveAspectRatio="xMidYMid meet">

<g transform="translate(0.000000,648.000000) scale(0.100000,-0.100000)"
fill="#000000" stroke="none">
<path d="M7360 5516 c0 -7 14 -46 30 -86 41 -100 56 -227 34 -293 -28 -84 -49
-76 -129 48 -85 133 -206 227 -347 271 -56 17 -76 16 -64 -5 3 -5 37 -26 74
-47 68 -38 182 -143 182 -168 0 -29 -5 -29 -245 24 -155 33 -169 35 -159 19
10 -17 123 -66 254 -111 135 -46 184 -73 232 -126 48 -53 72 -128 72 -227 0
-123 -41 -201 -143 -266 -25 -16 -58 -29 -74 -29 l-30 0 9 58 c13 89 11 305
-3 309 -7 3 -14 -14 -18 -44 -23 -165 -102 -355 -172 -412 -43 -35 -243 -112
-272 -104 -17 4 -21 11 -17 27 28 97 38 139 43 194 7 70 -15 248 -29 234 -5
-5 -13 -51 -19 -103 -11 -111 -19 -139 -70 -239 -37 -74 -138 -199 -188 -232
-119 -81 -271 123 -271 363 0 49 -4 89 -8 89 -5 0 -19 -35 -30 -79 -39 -140
-28 -291 29 -403 43 -84 4 -155 -98 -179 -37 -8 -40 -4 -17 22 25 28 10 47
-60 79 -58 26 -73 39 -146 130 -109 137 -132 185 -138 283 -2 42 -8 77 -13 77
-5 0 -16 -26 -25 -57 -21 -72 -15 -180 15 -243 11 -25 21 -51 21 -57 0 -24
-37 -13 -84 23 -87 66 -126 158 -126 296 0 134 21 166 175 268 114 76 235 169
235 181 0 15 -32 3 -165 -64 -66 -33 -137 -63 -158 -67 -38 -7 -38 -7 -32 18
9 36 105 182 157 238 24 26 72 67 108 93 90 64 52 67 -65 5 -147 -79 -268
-215 -327 -369 -30 -77 -64 -71 -94 18 -26 77 -23 150 11 225 15 34 25 65 21
69 -12 12 -56 -41 -75 -92 -59 -158 -44 -279 50 -397 28 -36 30 -42 27 -120
-3 -76 -5 -83 -24 -86 -29 -4 -83 43 -105 93 -13 28 -19 64 -19 118 0 58 -3
78 -12 75 -38 -13 -51 -216 -18 -282 27 -57 82 -111 150 -147 40 -21 72 -49
104 -90 29 -37 73 -77 117 -105 72 -47 93 -57 242 -115 48 -19 100 -44 115
-56 26 -22 27 -23 8 -38 -11 -8 -27 -15 -37 -15 -22 0 -37 -20 -45 -60 -8 -36
-38 -53 -115 -65 -26 -4 -60 -15 -76 -25 -27 -16 -30 -24 -37 -91 -3 -40 -3
-76 1 -80 5 -4 31 -4 58 0 28 4 66 4 85 0 19 -4 35 -7 36 -6 1 1 4 19 8 39 6
36 6 37 -26 40 -30 3 -33 6 -33 38 0 35 1 35 50 41 28 4 95 18 149 32 89 24
104 31 146 72 74 73 132 79 202 20 34 -29 55 -31 86 -9 20 14 23 23 19 62 -2
26 0 60 6 76 15 44 107 96 243 140 357 112 469 152 581 206 231 110 380 241
482 421 50 89 38 98 -31 24 -34 -37 -75 -73 -91 -82 -29 -15 -30 -15 -24 9 4
12 10 59 13 103 4 50 18 110 36 160 42 114 48 227 18 326 -23 76 -58 154 -92
202 -21 29 -38 35 -38 13z"/>
<path d="M6557 3939 c-32 -5 -90 -18 -129 -30 -61 -18 -80 -29 -128 -78 -80
-79 -94 -126 -88 -285 l5 -120 -29 -29 c-27 -28 -33 -29 -86 -24 -31 4 -115
27 -186 52 -72 25 -153 51 -180 57 -58 12 -77 24 -69 43 7 19 -29 27 -101 23
-70 -4 -86 -19 -65 -64 13 -27 20 -30 85 -36 82 -8 206 -51 303 -104 290 -159
454 -475 400 -770 -17 -92 -43 -113 -51 -40 -13 109 -108 235 -260 342 -138
98 -200 173 -214 263 -6 39 -8 41 -24 26 -27 -24 -70 -128 -77 -183 -4 -37 0
-60 17 -100 13 -29 20 -55 17 -58 -3 -3 -34 9 -68 27 -54 27 -78 33 -150 37
-47 2 -110 -1 -138 -7 -72 -15 -188 -70 -287 -136 -86 -57 -199 -154 -190
-163 3 -2 36 8 73 23 86 34 211 55 335 55 200 0 356 -38 546 -131 103 -51 136
-73 207 -141 96 -90 173 -199 206 -288 12 -34 26 -63 30 -66 5 -2 23 24 40 58
17 35 62 109 99 165 118 177 163 325 163 528 -2 259 -45 419 -205 758 -66 139
-67 159 -7 138 48 -16 109 -13 158 9 82 38 215 200 198 243 -7 19 -51 21 -150
6z"/>
<path d="M6000 3829 c-52 -35 -64 -54 -29 -46 13 3 33 2 44 -3 24 -9 55 5 55
25 0 21 24 18 45 -5 22 -24 35 -26 35 -5 0 26 -47 65 -77 65 -15 0 -48 -14
-73 -31z"/>
</g>
</svg>
